<svg enable-background="new 0 0 720 312" viewBox="0 0 720 312" xmlns="http://www.w3.org/2000/svg">
    <path
        d="m0 312v-312h720v312zm10.9-257.2v202.5h.6 37.2c1.1 0 1.3-.4 1.3-1.4 0-24.2 0-48.5 0-72.7 0-1.1-.2-2.2-.2-3.3 0-.8 0-1.6 0-2.6.3.3.6.4.6.5.2 1 .4 1.9.6 2.9.3 1.6.7 3.3 1.1 4.9.4 1.8.9 3.6 1.3 5.4.4 1.6.7 3.3 1.1 4.9s.9 3.4 1.3 5.2.6 3.4 1 5.2c.6 2.4 1.3 4.7 1.8 7.1.4 1.7.7 3.4 1 5.1.2.8.3 1.6.5 2.4.4 1.6.9 3.2 1.3 4.9s.7 3.5 1 5.2c.2.8.3 1.5.5 2.2.4 1.6 1 3.3 1.4 4.9s.6 3.5 1 5.3c.4 2 1 4 1.4 6 .2.8.3 1.6.5 2.5.4 1.3.7 2.6.8 3.9.1 1.2.4 1.5 1.6 1.5h28.4 3.1c.3 0 .6-.2.8-.5.4-1.8.6-3.6 1-5.3.5-2.5 1.1-5 1.7-7.5.7-3 1.4-6 2.2-9s1.4-6.3 2.1-9.4c.8-3.3 1.5-6.6 2.3-9.9.6-2.4 1.1-4.8 1.7-7.1.4-1.6.9-3.1 1.3-4.7s.7-3.5 1-5.2c.2-.9.3-1.8.6-2.6.4-1.6.9-3.1 1.3-4.7.2-1 .3-2.1.5-3.2.2-.8.4-1.6.6-2.3.4-1.7.9-3.4 1.3-5.1.2-1.1.4-2.1.6-3.2 0-.2.1-.4.2-.5l.3.2c0 .3.1.6.1.9-.1 1.2-.2 2.5-.2 3.7.1 24.8.1 49.5.2 74.2 0 1 .2 1.4 1.3 1.4h36.5c1.6 0 1.6 0 1.6-1.6v-199.4c0-1.8 0-1.8-1.8-1.8h-41.1c-1 3.6-2.1 7.1-3.1 10.6-1.7 5.7-3.4 11.3-5.1 17-.8 2.5-1.5 5.1-2.2 7.6-.6 2-1.2 4.1-1.8 6.1-.4 1.2-.7 2.4-1 3.7-.6 2-1.2 3.9-1.8 5.9-.4 1.4-.9 2.7-1.3 4.1s-.7 2.6-1.1 3.9-.7 2.7-1.1 4c-.6 1.9-1.2 3.8-1.8 5.7-.4 1.3-.7 2.6-1.1 3.9s-.8 2.5-1.2 3.8c-.4 1.5-.9 3-1.3 4.4-.5 1.8-1.1 3.6-1.6 5.4s-1 3.8-1.6 5.7c-.7 2.4-1.5 4.7-2.2 7.1s-1.3 4.7-2 7.1c-.1.2-.2.3-.4.4-.2 0-.3-.1-.4-.3-.2-.6-.3-1.3-.5-1.9-.5-1.9-1-3.8-1.6-5.7s-1.2-3.9-1.8-5.9c-.4-1.2-.7-2.5-1.1-3.7-.6-1.9-1.2-3.9-1.8-5.8-.4-1.3-.7-2.6-1-3.9-.7-2.4-1.6-4.7-2.3-7-.7-2.1-1.2-4.3-1.9-6.4-1.2-4-2.4-7.9-3.6-11.8s-2.4-8.1-3.6-12.2c-.9-3.1-1.8-6.1-2.7-9.2-.7-2.3-1.3-4.6-2-6.9-.8-2.5-1.5-5-2.3-7.5-.7-2.3-1.3-4.7-2-7.1-.6-1.9-1.2-3.8-1.8-5.6-.5-1.7-1-3.5-1.6-5.2zm500.6 202.5h1.1 36.8c1.3 0 1.4-.5 1.4-1.6 0-66.5 0-133 0-199.4 0-1.6 0-1.6-1.6-1.6h-41.2l-31.9 106.6c-.2-.3-.4-.6-.6-.9-.1-.3-.1-.7-.2-1-.6-1.9-1.2-3.9-1.7-5.8-.4-1.3-.7-2.6-1.1-3.9-.6-1.9-1.2-3.8-1.8-5.7-.4-1.3-.7-2.6-1.1-3.9-.6-1.9-1.2-3.7-1.8-5.6-.4-1.4-.7-2.7-1.1-4.1-.6-1.9-1.2-3.8-1.8-5.8-.4-1.3-.7-2.6-1-3.9-.4-1.5-.9-2.9-1.4-4.4-.4-1.2-.8-2.5-1.1-3.8s-.9-2.6-1.2-3.8c-.5-1.9-1-3.8-1.5-5.6-1.1-3.7-2.3-7.3-3.4-11-1.2-4-2.3-8-3.5-12-1.4-4.6-2.8-9.1-4.2-13.7-1.2-3.9-2.3-7.8-3.4-11.6h-42.5v202.5h37.5c1.6 0 1.6 0 1.6-1.6v-76.8l.3-.1c.2.2.4.4.5.6.4 1.6.8 3.2 1.1 4.9s.6 3.4 1 5.1 1 3.3 1.4 5 .6 3.5 1 5.2c.6 2.4 1.3 4.7 1.9 7 .5 2.1 1 4.2 1.5 6.3.5 2.4 1 4.8 1.5 7.2.2.8.3 1.6.5 2.5.4 1.6 1 3.2 1.3 4.9s.6 3.4 1 5.2c.5 2 1.1 3.9 1.5 5.9.9 3.7 1.8 7.4 2.6 11.1.5 2 .9 4.1 1.2 6.2.1 1.1.3 1.4 1.4 1.4h31.1.9c.5-2 .8-3.8 1.2-5.6.9-3.9 1.7-7.8 2.7-11.7.5-2.3 1.3-4.6 1.9-6.9.5-2.1 1-4.1 1.4-6.2s1-4.1 1.4-6.2c.5-2.4 1-4.9 1.5-7.3.2-.8.3-1.6.5-2.4.4-1.6 1-3.2 1.4-4.9s.7-3.4 1-5.1c.2-.9.4-1.8.6-2.6.4-1.6.9-3.3 1.3-4.9s.7-3.5 1.1-5.2.9-3.3 1.3-4.9c.4-1.9.7-3.8 1.1-5.6.1-.3.2-.6.4-.9l.3.1zm101.6 0h65.6c.3 0 .6.1.8 0s.7-.7.7-.9c-.4-.8.2-1.2.6-1.7.7-.6 1.3-1.3 2-1.9 8.4-8.4 16.8-16.9 25.3-25.3.8-.7 1.3-1.8 1.2-2.9 0-46.6 0-93.2 0-139.8.1-1.3-.4-2.5-1.4-3.3-.8-.6-1.4-1.4-2.1-2.1-8-8-15.9-15.9-23.8-23.9-.5-.6-1.2-.9-2-.9-14.2 0-28.3 0-42.5 0-8.1 0-16.2 0-24.2 0-.5 0-1 .1-1.4.4-2.3 2.3-4.6 4.6-6.9 6.9-6.8 6.8-13.5 13.5-20.2 20.3-.7.6-1 1.6-1 2.5v138.6c-.1 1.7.6 3.3 1.8 4.5 8.8 8.6 17.4 17.3 26.1 26 .8 1 1.9 1.8 1.4 3.5zm-316.9-164.9v-1.3c0-11.6 0-23.3 0-34.9 0-1.2-.3-1.5-1.5-1.5-33.4 0-66.9 0-100.3 0-1.2 0-1.4.3-1.4 1.5v50.6 149c0 1 .1 1.5 1.3 1.5h100.5c1.1 0 1.4-.3 1.4-1.4 0-12.5 0-25 0-37.4 0-1.7 0-1.7-1.7-1.7h-62.4v-40.8c0-1.9 0-1.9 1.9-1.9h49.1v-39h-51v-42.7zm72 20.2c-.3 0-.5 0-.6 0-12.4 0-24.8 0-37.2 0-1.1 0-1.3.5-1.3 1.5v141.7c0 1.2.3 1.6 1.5 1.6h36.5 1.1zm-18.5-58.3c-11.3 0-20.4 9.1-20.4 20.4s9.1 20.4 20.4 20.4c11.2 0 20.3-9 20.4-20.2s-8.9-20.4-20.1-20.6c-.1 0-.2 0-.3 0z"
        fill="#2b2e33" />
    <g fill="#fff">
        <path
            d="m10.9 54.8h42.3c.5 1.7 1 3.5 1.6 5.2.6 1.9 1.2 3.8 1.8 5.6.7 2.3 1.3 4.7 2 7.1.7 2.5 1.5 5 2.3 7.5.7 2.3 1.3 4.6 2 6.9.9 3.1 1.8 6.2 2.7 9.2 1.2 4.1 2.4 8.1 3.6 12.2 1.2 4 2.4 7.9 3.6 11.8.6 2.1 1.2 4.3 1.9 6.4.7 2.4 1.6 4.7 2.3 7 .4 1.3.7 2.6 1 3.9.6 1.9 1.2 3.9 1.8 5.8.4 1.2.7 2.5 1.1 3.7.6 2 1.2 3.9 1.8 5.9s1.1 3.8 1.6 5.7c.2.6.3 1.3.5 1.9.1.2.2.3.4.3.2-.1.3-.2.4-.4.7-2.4 1.3-4.7 2-7.1s1.5-4.7 2.2-7.1c.6-1.9 1.1-3.8 1.6-5.7s1.1-3.6 1.6-5.4c.4-1.5.8-3 1.3-4.4.4-1.3.9-2.5 1.2-3.8s.8-2.6 1.1-3.9c.6-1.9 1.2-3.8 1.8-5.7.4-1.3.8-2.7 1.1-4s.7-2.6 1.1-3.9.9-2.7 1.3-4.1c.6-2 1.2-3.9 1.8-5.9.4-1.2.7-2.4 1-3.7.6-2 1.2-4.1 1.8-6.1.7-2.5 1.4-5.1 2.2-7.6 1.7-5.7 3.4-11.3 5.1-17 1-3.5 2-7 3.1-10.5h41.2c1.8 0 1.8 0 1.8 1.8v199.2c0 1.6 0 1.6-1.6 1.6-12.2 0-24.3 0-36.5 0-1.1 0-1.3-.3-1.3-1.4 0-24.7-.1-49.5-.2-74.2 0-1.2.2-2.4.2-3.7 0-.3 0-.6-.1-.9l-.3-.2c-.1.2-.1.4-.2.5-.2 1.1-.3 2.1-.6 3.2-.4 1.7-.9 3.4-1.3 5.1-.2.8-.4 1.6-.6 2.3-.2 1.1-.3 2.2-.5 3.2-.4 1.6-.9 3.1-1.3 4.7-.2.9-.4 1.7-.6 2.6-.3 1.7-.6 3.5-1 5.2s-.9 3.1-1.3 4.7c-.6 2.4-1.1 4.8-1.7 7.1-.8 3.3-1.5 6.6-2.3 9.9-.7 3.1-1.4 6.3-2.1 9.4s-1.4 6-2.2 9c-.6 2.5-1.2 5-1.7 7.5-.4 1.8-.6 3.6-1 5.3-.2.3-.4.5-.8.5-1 0-2.1 0-3.1 0-9.5 0-19 0-28.4 0-1.2 0-1.5-.3-1.6-1.5-.2-1.3-.4-2.6-.8-3.9-.2-.8-.3-1.6-.5-2.5-.5-2-1-4-1.4-6-.4-1.8-.6-3.6-1-5.3s-.9-3.3-1.4-4.9c-.2-.7-.4-1.5-.5-2.2-.3-1.8-.6-3.5-1-5.2s-.9-3.3-1.3-4.9c-.2-.8-.4-1.6-.5-2.4-.3-1.7-.6-3.4-1-5.1-.6-2.4-1.3-4.7-1.8-7.1-.4-1.7-.6-3.4-1-5.2s-.9-3.4-1.3-5.2-.7-3.3-1.1-4.9c-.4-1.8-.9-3.6-1.3-5.4-.4-1.6-.8-3.3-1.1-4.9-.2-1-.3-1.9-.6-2.9 0-.2-.3-.3-.6-.5v2.6c0 1.1.2 2.2.2 3.3v72.7c0 1-.2 1.4-1.3 1.4-12.4 0-24.8 0-37.2 0-.1 0-.3 0-.6 0z" />
        <path
            d="m511.5 257.3v-80.4l-.3-.1c-.2.3-.3.6-.4.9-.4 1.9-.7 3.8-1.1 5.6-.4 1.7-.9 3.3-1.3 4.9s-.7 3.5-1.1 5.2-.9 3.3-1.3 4.9c-.2.9-.4 1.7-.6 2.6-.3 1.7-.6 3.4-1 5.1s-.9 3.2-1.4 4.9c-.2.8-.4 1.6-.5 2.4-.5 2.4-1 4.9-1.5 7.3-.5 2.1-1 4.1-1.4 6.2s-.9 4.1-1.4 6.2c-.6 2.3-1.3 4.6-1.9 6.9-.9 3.9-1.8 7.8-2.7 11.7-.4 1.8-.8 3.6-1.2 5.5h-.9c-10.4 0-20.7 0-31.1 0-1.1 0-1.3-.4-1.4-1.4-.3-2.1-.7-4.1-1.2-6.2-.8-3.7-1.7-7.4-2.6-11.1-.5-2-1.1-3.9-1.5-5.9-.4-1.7-.6-3.4-1-5.2s-.9-3.2-1.3-4.9c-.2-.8-.4-1.6-.5-2.5-.5-2.4-1-4.8-1.5-7.2-.5-2.1-.9-4.2-1.5-6.3-.6-2.4-1.3-4.7-1.9-7-.4-1.7-.6-3.5-1-5.2s-1-3.3-1.4-5-.7-3.4-1-5.1-.7-3.3-1.1-4.9c-.1-.2-.3-.4-.5-.6l-.3.1v76.8c0 1.6 0 1.6-1.6 1.6h-37.5v-202.3h42.4c1.1 3.8 2.2 7.7 3.4 11.6 1.4 4.6 2.8 9.1 4.2 13.7 1.2 4 2.3 8 3.5 12 1.1 3.7 2.3 7.3 3.4 11 .6 1.9 1 3.8 1.5 5.6.4 1.3.8 2.6 1.2 3.8s.8 2.5 1.1 3.8c.5 1.4.9 2.9 1.4 4.4.4 1.3.7 2.6 1 3.9.6 1.9 1.2 3.8 1.8 5.8.4 1.4.7 2.7 1.1 4.1.6 1.9 1.2 3.7 1.8 5.6.4 1.3.7 2.6 1.1 3.9.6 1.9 1.2 3.8 1.8 5.7.4 1.3.7 2.6 1.1 3.9.6 1.9 1.2 3.9 1.7 5.8.1.3.1.7.2 1 .2.3.4.6.6.9l32-106.6h41.2c1.6 0 1.6 0 1.6 1.6v199.4c0 1-.1 1.6-1.4 1.6-12.3 0-24.6 0-36.8 0z" />
        <path
            d="m613.1 257.3c.6-1.7-.6-2.5-1.5-3.4-8.7-8.7-17.3-17.4-26.1-26-1.3-1.1-1.9-2.8-1.8-4.5 0-46.2 0-92.4 0-138.6 0-.9.3-1.9 1-2.5 6.8-6.8 13.5-13.5 20.2-20.4 2.3-2.3 4.6-4.6 6.9-6.9.4-.3.9-.4 1.4-.4h24.2 42.5c.8 0 1.5.3 2 .9 7.9 8 15.9 16 23.8 23.9.7.7 1.3 1.5 2.1 2.1 1 .8 1.5 2 1.4 3.3v139.8c0 1.1-.4 2.1-1.2 2.9-8.5 8.4-16.9 16.8-25.3 25.3-.7.6-1.3 1.3-2 1.9-.5.5-1 .9-.6 1.7.1.2-.4.6-.7.9s-.5 0-.8 0zm57.3-40.7v-124h-47.4v124z" />
        <path
            d="m296.2 92.4h-64v42.6h51v39h-49.2c-2 0-1.9 0-1.9 1.9v40.7h62.4c1.7 0 1.7 0 1.7 1.7v37.4c0 1.1-.3 1.4-1.4 1.4-33.5 0-67 0-100.6 0-1.2 0-1.3-.5-1.3-1.5 0-49.7 0-99.3 0-149 0-16.9 0-33.8 0-50.6 0-1.1.3-1.5 1.4-1.5h100.3c1.2 0 1.5.3 1.5 1.5v34.9z" />
        <path
            d="m368.1 112.6v144.7h-1.1c-12.2 0-24.3 0-36.5 0-1.2 0-1.5-.4-1.5-1.6 0-47.2 0-94.5 0-141.7 0-1 .2-1.5 1.3-1.5h37.2c.2.1.4.1.6.1z" />
    </g>
    <path
        d="m349.7 54.3c11.3 0 20.4 9.2 20.4 20.4 0 11.3-9.2 20.4-20.4 20.4-11.3 0-20.4-9.2-20.4-20.4 0-.1 0-.3 0-.4.1-11.1 9.2-20 20.4-20z"
        fill="#f26522" />
    <path d="m670.4 216.6h-47.4v-124h47.4z" fill="#2b2e33" />
</svg>