<svg viewBox="0 0 650.15 387.51" xmlns="http://www.w3.org/2000/svg">

    <g id="Layer_2">
        <g id="Layer_1-2">
            <path class="cls-1"
                d="M0,387.31c.52-1.05.89-1.84,1.3-2.6Q81.66,233.09,162,81.46c11.83-22.32,23.75-44.6,35.44-67A25.53,25.53,0,0,1,215.73.71a30.16,30.16,0,0,1,19.44,2.18,23.42,23.42,0,0,1,11.09,10.54Q344.57,199.1,442.92,384.76c.4.76.75,1.55,1.24,2.57-1,.05-1.78.13-2.54.13q-48.22,0-96.46.05c-1.94,0-2.77-.67-3.57-2.33Q287,272.65,232.38,160.16a24.61,24.61,0,0,0-3.24-5.29c-4.35-5.09-11-5.12-15.45-.1a21.46,21.46,0,0,0-3.06,4.83q-23.72,48.74-47.35,97.51-31,64-62.08,127.94c-.35.71-.73,1.42-1.16,2.26Z" />
            <path class="cls-1"
                d="M650.15,387.46h-2.84q-48,0-96,0c-3.24,0-2.55.3-3.89-2.47Q492.8,272.49,438.18,160a23.21,23.21,0,0,0-3.28-5.26c-4.35-4.95-10.91-4.94-15.29,0a21.24,21.24,0,0,0-3.06,4.83q-12.84,26.3-25.58,52.62c-.38.78-.79,1.54-1.32,2.57-.58-1.07-1-1.83-1.42-2.6q-21.64-40.9-43.3-81.82c-1.72-3.25-1.75-2.19,0-5.41q29.24-55.21,58.46-110.43A25.55,25.55,0,0,1,421.61.72a30.17,30.17,0,0,1,19.44,2.17,23.31,23.31,0,0,1,11.09,10.53Q546.75,192.1,641.38,370.76q3.89,7.31,7.75,14.62C649.42,385.93,649.68,386.5,650.15,387.46Z" />
        </g>
    </g>
</svg>