<svg viewBox="0 0 569.61 187.77" xmlns="http://www.w3.org/2000/svg">

    <g id="Layer_2">
        <g id="Layer_1-2">
            <path class="cls-1"
                d="M245.12,105.06c-.53-6.1-1.18-11.91-5.11-16.82.69-.42,1.19-.78,1.74-1,15.64-7.53,36.73-4.78,49.19,9a38.37,38.37,0,0,1,9.85,22.46c1,10.2-1,19.75-7.05,28.21-6.55,9.08-15.63,14-26.53,15.63a44.13,44.13,0,0,1-28.13-4.64,10,10,0,0,0-1-.41c-.6,2-.22,4-.29,5.95s0,4,0,6v18.34H219.3v-2.85q0-36.82,0-73.66a33,33,0,0,0-.85-6.62c-.75-3.54-3.24-5.15-6.7-5.48-.95-.08-1.9-.12-3.17-.2-.14-4.89,0-9.72-.06-14.67a7.79,7.79,0,0,1,1.72-.36c3.75.09,7.54-.12,11.23.42,8.82,1.27,14.8,7,16.53,15.74a63.41,63.41,0,0,1,1,10.48c.17,5.59,0,11.19.06,16.79.08,7.9,6.31,18.47,17.44,20s20.27-3.83,23.78-14.45c2.83-8.57,2.16-16.92-2.65-24.68-7.45-12-23.85-11.63-31.16-4.31C246.16,104.28,245.76,104.54,245.12,105.06Z" />
            <path class="cls-1"
                d="M358.34,160.32A44.31,44.31,0,0,1,326.76,163a24.23,24.23,0,0,1-14.3-9.86,21.44,21.44,0,0,1,4.63-28.6c5.09-3.87,11-5.76,17.16-7A118.08,118.08,0,0,1,354,115.4c.87,0,1.73-.08,2.56-.12,1.08-5.33-1.87-9.43-7.05-9.88-1.51-.13-3-.1-4.56-.1l-24.71,0c-.7,0-1.41-.09-2.28-.14V87.35a8.45,8.45,0,0,1,1.21-.18c10.07,0,20.15-.08,30.22.11a33.18,33.18,0,0,1,8.47,1.49c8.85,2.55,14.19,8.53,16.52,17.36,1.48,5.64,1.57,11.39,1.45,17.15-.08,3.92-.19,7.84-.3,11.75a18.07,18.07,0,0,0,1.26,7.28c1.43,3.6,3.83,6.05,7.9,6.44a6.36,6.36,0,0,1,1,.26v14.7a23.71,23.71,0,0,1-9.28-.44c-9.38-1.88-15.21-7.65-17.91-16.71a45.73,45.73,0,0,1-1.61-13.77c0-1,0-1.91,0-3a4.65,4.65,0,0,0-1.07-.31,66.5,66.5,0,0,0-15.73,1.42,22.66,22.66,0,0,0-8.33,3.55c-2.45,1.77-4.25,3.95-3.9,7.22a8.11,8.11,0,0,0,5.46,7c5.63,2.25,11.28,1.73,16.87-.26.59-.21,1.16-.49,1.77-.74C354.06,151.79,356.09,155.85,358.34,160.32Z" />
            <path class="cls-1"
                d="M178.07,129.94c-.32-.27-.38-.37-.44-.37-6.59-.22-13.14.1-19.41,2.31a23.07,23.07,0,0,0-6.08,3.28c-5,3.79-3.34,10,.63,12.58a15.73,15.73,0,0,0,8,2.31,24.67,24.67,0,0,0,12.54-2.48c1,2.15,1.88,4.26,2.9,6.29s2.19,4.06,3.48,6.41a55.27,55.27,0,0,1-5.57,2.23A48.46,48.46,0,0,1,148,163a24.09,24.09,0,0,1-14.46-10,21.49,21.49,0,0,1,5-28.72,36.8,36.8,0,0,1,11.19-5.36c8.27-2.51,16.79-3.15,25.36-3.5.86,0,1.73,0,2.53,0,1.19-5.3-1.69-9.47-6.72-10-1.43-.14-2.88-.13-4.32-.13-8.32,0-16.63,0-24.95,0-.79,0-1.57-.07-2.5-.12V87.32a10.9,10.9,0,0,1,1.24-.15c9.91,0,19.83,0,29.75.06a31.61,31.61,0,0,1,11,2.24,22.32,22.32,0,0,1,13.65,14.21,42.62,42.62,0,0,1,2.23,14.15c0,6-.18,12-.3,18A16.28,16.28,0,0,0,198.3,143c1.45,3.18,3.78,5.31,7.42,5.68a10.41,10.41,0,0,1,1.24.3v14.69a22.83,22.83,0,0,1-8.66-.3c-8.84-1.59-14.91-6.55-18-15.07a42,42,0,0,1-2.23-13.19C178,133.4,178.07,131.64,178.07,129.94Z" />
            <path class="cls-1"
                d="M565.49,88.2V106c-1,0-1.92.14-2.84.14-9,0-17.91,0-26.87.06a21.57,21.57,0,0,0-5.4.85,3.29,3.29,0,0,0-2.47,3,3,3,0,0,0,1.66,3.19,18.76,18.76,0,0,0,4.65,1.81c4,.77,8,1.27,12.07,1.91a39.28,39.28,0,0,1,11.21,3.39q11.93,5.82,12.11,19.1a25.29,25.29,0,0,1-1.3,8.72c-2,5.69-5.95,9.55-11.31,12.1a31.88,31.88,0,0,1-13.22,3.11c-10.87.18-21.74.11-32.62.13a5,5,0,0,1-.84-.2V145.41c.82,0,1.66-.11,2.51-.11,9.2,0,18.39,0,27.59-.05a28.32,28.32,0,0,0,6.1-1,5.32,5.32,0,0,0,2.4-1.49,3.53,3.53,0,0,0-.82-5.84,21,21,0,0,0-5.44-1.75c-4.54-.89-9.15-1.46-13.68-2.41a34.38,34.38,0,0,1-11.68-4.84c-12.47-8.08-11.5-26.91-.19-34.56a29.79,29.79,0,0,1,16-5.15c10.46-.3,20.94-.2,31.41-.25A4.64,4.64,0,0,1,565.49,88.2Z" />
            <path class="cls-1"
                d="M429.61,86.83h18.76v2.91c0,13.12,0,26.23,0,39.35,0,6.63,2.82,11.77,8.77,14.87,10.64,5.53,23.07-2.28,23.14-14.54.07-13.2,0-26.4,0-39.59v-3H499c.06.6.17,1.14.17,1.67,0,14,.14,28-.05,42a34.82,34.82,0,0,1-69.09,5.57,39.72,39.72,0,0,1-.56-6.44c-.05-13.52,0-27,0-40.55C429.48,88.4,429.56,87.7,429.61,86.83Z" />
            <path class="cls-1"
                d="M19,162H.23A18.9,18.9,0,0,1,0,160.15c0-13.75-.09-27.51,0-41.26.13-15.84,12-29.94,27.64-33.08a34.7,34.7,0,0,1,42,33.76c.08,13.6,0,27.19,0,40.79,0,.47-.07.94-.12,1.58H50.87c0-.87-.08-1.79-.08-2.72,0-13.11,0-26.23,0-39.34A15.89,15.89,0,0,0,19,118.65c-.12,2.16,0,4.32,0,6.48q0,17,0,34.07Z" />
            <path class="cls-1"
                d="M429.54,78a16.21,16.21,0,0,1,.69-1.66q20.14-36.42,40.3-72.84A5.91,5.91,0,0,1,474.41.22a5.86,5.86,0,0,1,6.93,2.9q5.75,10.26,11.41,20.55L521.07,74.9c.49.9,1,1.81,1.61,3-.93.09-1.59.21-2.25.22-5.6,0-11.2-.08-16.8,0a3.13,3.13,0,0,1-3.26-2.11q-9.92-19.73-19.93-39.39c-.72-1.42-1.43-2.85-2.16-4.28-.52-1-1.17-2-2.5-1.9s-1.8.93-2.29,1.88l-6.93,13.7c-5.1,10-10.23,20.09-15.26,30.18a2.94,2.94,0,0,1-3.13,1.91c-5.44-.1-10.88,0-16.32,0C431.15,78.12,430.46,78.05,429.54,78Z" />
            <path class="cls-1"
                d="M423.53,148.19v14.69a34.21,34.21,0,0,1-11.41.42,25.15,25.15,0,0,1-4.93-1c-8.44-2.58-12.74-8.67-14-17.1a55.18,55.18,0,0,1-.64-8.11q-.08-32.75,0-65.48c0-.78.07-1.56.12-2.46h18.32v2.94c0,21,0,42.06,0,63.08a30.81,30.81,0,0,0,.79,7.11c1,4,3.06,5.55,7.15,5.86C420.39,148.28,421.9,148.19,423.53,148.19Z" />
            <path class="cls-1"
                d="M75.58,107.39c-1.32-3-2.38-5.94-3.87-8.64s-3.39-5.17-5.19-7.86A12.35,12.35,0,0,1,67.8,90c11.51-6.41,23.25-6.79,34.76-.4,11.36,6.3,17.48,16.28,17.78,29.3.31,13.82.08,27.66.08,41.49,0,.46-.06.93-.11,1.66-6.17.24-12.28.06-18.64.1,0-1.07-.13-2-.13-2.92,0-13,0-26.06,0-39.09a15.73,15.73,0,0,0-12.47-15.8,15.27,15.27,0,0,0-11.53,1.86C76.91,106.53,76.32,106.93,75.58,107.39Z" />
            <path class="cls-1"
                d="M566.12,78.15h-7.7c-3.84,0-7.68-.07-11.52,0a2.93,2.93,0,0,1-3.13-1.91Q533,54.85,522.12,33.47a14.34,14.34,0,0,0-.9-1.69c-1.17-1.75-2.92-1.79-4,0-.8,1.28-1.41,2.69-2.1,4l-3.73,7.29c-.51-.79-.93-1.35-1.26-2-2.52-4.54-5-9.12-7.57-13.63a3.09,3.09,0,0,1-.06-3.5c3.91-6.88,7.79-13.79,11.5-20.78a6.33,6.33,0,0,1,7.6-2.85,6.23,6.23,0,0,1,3.37,3.23q9.5,17.22,19,34.42l20.55,37.15C565,76,565.41,76.83,566.12,78.15Z" />
        </g>
    </g>
</svg>