<svg viewBox="0 0 987.98 1138.65" xmlns="http://www.w3.org/2000/svg"><path d="m337.29 26.36s472.18-134.11 574.71 202.69 157.77 601.08-215.4 646.68-537.65 273.51-649 135-32.09-912.6 289.69-984.37z" fill="#ffd69f"/><path d="m504.92 208.24 2 25.38c.48 6.08 5.9 10.42 11.11 7.27 8.92-5.4 19.11-15.61 21.65-34.56 6-44.59-18.55-29.25-18.55-29.25z" fill="#4c4e51"/><path d="m559.34 263.25s8.54-.52 12.65.14 46.16-29.19 28.46-68.15c-11.21-24.68-57.81-2.78-57.81-2.78z" fill="#0f1a5c"/><path d="m494.79 295.85-62.88 83.53s-49.57 19.45-91.5 29.15l4.21 27.52 78.54-8.78a65.74 65.74 0 0 0 37.08-18.39c16.31-16.18 40.28-42.23 49.95-64.17 23.52-53.35 6.27-17.24 6.27-17.24z" fill="#ffa3b4"/><path d="m772.64 749.1-266.9 167.62a115.42 115.42 0 0 1 -115.24 4.34l-125.89-66.41 331.57-197z" fill="#1d1d1e"/><path d="m784.85 664.43-55.16-30c-15.2-8-35.76-6.51-58.53 6.32l-1.72 1c-46.93 27.56-85.25 93.19-85.95 147.77q-.06 4.34.2 8.38c.82 13.14 4 24.14 9.17 32.73a42.84 42.84 0 0 0 21.25 18.37l48.12 26.41 24.1-46.83c26.87-21.6 49.37-55 61.1-89.34a156.76 156.76 0 0 0 8.64-43.3c0-1 .07-2.05.09-3.07l2.44-4.75z" fill="#1d1d1e"/><path d="m721.55 742.31.45-.31c14-7.88 25.19-1.12 25 15.1-.21 16-11.49 35.33-25.28 43.42l-.48.28c-14 7.88-25.19 1.16-25-15.06.24-16.01 11.52-35.34 25.31-43.43z" fill="#2c2e30"/><path d="m722.41 711.48c28.61-16.15 51.45-2.4 51.05 30.73-.44 32.71-23.44 72.11-51.59 88.64l-1 .59c-28.58 16.09-51.42 2.33-51-30.79.44-32.68 23.4-72 51.48-88.54zm-.67 89.07c13.79-8.09 25.07-27.38 25.28-43.42.2-16.22-11-23-25-15.1l-.48.28c-13.79 8.09-25.07 27.42-25.28 43.46-.2 16.22 11 22.94 25 15.06z" fill="#e0e0e0"/><path d="m722.93 668.81c47.72-26.9 85.79-3.93 85.05 51.3 0 1.3-.06 2.6-.12 3.92a156.91 156.91 0 0 1 -8.64 43.3c-14 41-43.33 80.63-77.13 100.47l-1.79 1c-33.1 18.69-61.59 13.34-75.66-10.16-5.14-8.58-8.36-19.59-9.18-32.73q-.26-4.05-.2-8.37c.7-54.59 39-120.22 86-147.77zm-1.06 162c28.13-16.49 51.13-55.89 51.59-88.6.4-33.13-22.44-46.88-51.05-30.73l-1.1.63c-28.08 16.49-51 55.86-51.48 88.54-.41 33.12 22.43 46.88 51 30.79l1-.59" fill="#2c2e30"/><path d="m817.12 676.46c-6.22-42.87-23.75-124.24-70.12-166.46-64.76-59.1-153.35 103.73-153.35 103.73l15.53 49.84c-25.48 37.53-53 96.1-44 158.82l58.62 19.11 178.2-124.25a38.07 38.07 0 0 0 15.34-40.08c-.11-.23-.16-.47-.22-.71z" fill="#393d42"/><path d="m767.77 521.85-107.47-62.05a19.67 19.67 0 0 1 0-34.08l114.7-66.23a19.71 19.71 0 0 1 19.68 0l114.72 66.23a19.67 19.67 0 0 1 0 34.08l-107.46 62.05a34.14 34.14 0 0 1 -34.17 0z" fill="#2c2e30"/><path d="m919.24 441.64h-268.75l-.03-131.66 268.78.13z" fill="#2c2e30"/><path d="m767.77 389.07-107.47-62.07a19.68 19.68 0 0 1 0-34.09l114.7-66.2a19.66 19.66 0 0 1 19.68 0l114.72 66.23a19.67 19.67 0 0 1 0 34.08l-107.46 62.05a34.19 34.19 0 0 1 -34.17 0z" fill="#393d42"/><path d="m336.8 923-55.16-30c-15.2-8-35.76-6.52-58.53 6.32l-1.72 1c-46.93 27.55-85.25 93.18-86 147.77q-.06 4.32.2 8.38c.82 13.13 4 24.14 9.18 32.72a42.75 42.75 0 0 0 21.26 18.42l48.15 26.39 24.1-46.84c26.87-21.59 49.37-55 61.1-89.33a156.83 156.83 0 0 0 8.64-43.3c.05-1 .07-2 .09-3.07l2.44-4.75z" fill="#1d1d1e"/><path d="m273.5 1000.86.48-.28c14-7.88 25.19-1.12 25 15.1-.21 16-11.49 35.32-25.28 43.41l-.48.28c-14 7.88-25.19 1.17-25-15.06.21-16.03 11.49-35.31 25.28-43.45z" fill="#2c2e30"/><path d="m274.36 970c28.61-16.16 51.45-2.4 51.05 30.73-.44 32.71-23.44 72.11-51.59 88.63-.34.2-.68.4-1 .59-28.57 16.1-51.42 2.34-51-30.79.44-32.68 23.4-72 51.48-88.53zm-.67 89.06c13.79-8.09 25.07-27.37 25.28-43.41.2-16.22-11-23-25-15.1l-.48.28c-13.79 8.09-25.07 27.42-25.28 43.45-.2 16.23 11 22.94 25 15.06z" fill="#e0e0e0"/><path d="m274.89 927.35c47.71-26.9 85.78-3.93 85 51.31 0 1.3-.06 2.6-.12 3.91a156.76 156.76 0 0 1 -8.64 43.3c-14 41-43.33 80.64-77.13 100.48-.6.35-1.19.69-1.79 1-33.1 18.69-61.59 13.35-75.66-10.15-5.14-8.59-8.36-19.59-9.18-32.73q-.25-4-.2-8.38c.7-54.58 39-120.21 86-147.77.57-.32 1.14-.64 1.72-.97zm-1.07 162c28.15-16.52 51.15-55.92 51.59-88.63.4-33.13-22.44-46.89-51.05-30.73l-1.1.63c-28.08 16.49-51 55.85-51.48 88.53-.41 33.13 22.44 46.89 51 30.79.35-.19.69-.39 1-.59" fill="#2c2e30"/><path d="m172 998.45 22.34 9a33.36 33.36 0 0 0 18.08 2l159.94-27c10.05-1.84.57-31.68-1.22-37.18-6.31-19.43-45.71-74.31-117-64.65-40.26 5.46-75.68 37.65-97 67.63a33.39 33.39 0 0 0 14.86 50.2z" fill="#393d42"/><path d="m494.79 601.48s27 94.41-43 141.92l113.32 79s89.66-90.31 67.89-197.3c-30.89-151.27-138.21-23.62-138.21-23.62z" fill="#2c2e30"/><path d="m759.92 545.36-156.5 98.29a33.74 33.74 0 0 1 -33.67 1.27l-57-30.06c-23.31-12.29-24.15-45.36-1.5-58.82l160.79-95.56a33.72 33.72 0 0 1 32.75-.94l52.69 27.31c23.19 12.01 24.52 44.64 2.44 58.51z" fill="#323335"/><path d="m637.62 833.9-44-29.78-210.9 135.07 32.1-5.14a67.91 67.91 0 0 0 67.58-2.67l23.45-14.73z" fill="#393d42"/><path d="m533.68 582.44c6.76 0 142.14 48.81 142-63.31s-172.81 15.87-172.81 15.87z" fill="#393d42"/><path d="m377.06 825.75 44.4-45.14c6-3.56 19.55-5.21 28.8-4.11a8.86 8.86 0 0 1 7.69 8.08l.78 9c1.58 12.91.44 14.8-7.46 19.5l-47 27.94c-7.91 4.7-20.06 5.37-27 1.48l-2-1.11c-6.9-3.91-6.12-10.94 1.79-15.64z" fill="#e8e8e8"/><path d="m377.06 816.09 44.4-45.09c6-3.57 19.55-5.22 28.8-4.12a8.86 8.86 0 0 1 7.69 8.08l.78 9c1.58 12.91.44 14.8-7.46 19.5l-47 27.94c-7.91 4.7-20.06 5.37-27 1.48l-2-1.11c-6.9-3.95-6.12-10.98 1.79-15.68z" fill="#ffb600"/><path d="m454.63 775.29c0 13.29-32.33 13.29-32.33 0v-43.2h32.33z" fill="#ffa3b4"/><path d="m427.11 857.55 41.89-42.4c5.81-3.85 19.28-6.16 28.56-5.51a8.87 8.87 0 0 1 8.08 7.7l4.49 2c2.21 12.82 1.15 20.86-6.52 26l-48.81 31c-7.67 5.08-19.78 6.33-26.92 2.78l-2-1c-7.18-3.6-6.44-15.49 1.23-20.57z" fill="#e8e8e8"/><path d="m429.83 852.45 42.17-47.23c5.81-3.85 19.27-6.16 28.56-5.5a8.86 8.86 0 0 1 8.07 7.7l1.22 8.93c2.2 12.82 1.16 14.76-6.51 19.84l-45.55 30.18c-7.67 5.08-19.78 6.34-26.91 2.79l-2-1c-7.16-3.56-6.72-10.62.95-15.71z" fill="#ffb600"/><path d="m505 806c0 13.29-32.35 13.25-32.33 0l.06-43.2h32.33z" fill="#ffa3b4"/><path d="m526.56 473.55s-102.78 50.54-105.44 89.12c-1.63 23.64-6.53 150.74-4.18 183.3a13 13 0 0 0 7.31 10.86c9.91 4.71 27.82 9.88 33.8-10.31 8.44-28.49 5.53-125.84 25.71-153.7s120.31-67.17 120.31-67.17z" fill="#1d1d1e"/><path d="m586.39 521.35s-83.52 34.38-113.75 80.57c-12.24 18.69-7.67 140.42-6.53 172.33a13.21 13.21 0 0 0 7.48 11.42c9.86 4.79 27.07 9.84 33.71-8.69 9.54-26.62 10.36-118.88 31.64-144.45 11.55-13.86 45.89-25.87 93.31-44 21.69-8.29 33.55-50.81 8.36-56z" fill="#393d42"/><path d="m509.75 275.13-66 76.84c4.14 28 19.31 36.13 37.27 45.31l56.46-57.65z" fill="#f49c00"/><path d="m502.87 477.05c5.77-42.77 2.69-60.45-7-118.67-3.76-81.06 19.53-112.36 71.46-96.1l21.36 4.63c63.18 30.34 94.41 27.22 86.41 93l-3 134c3.39 73.53-169.1 69.86-169.23-16.86z" fill="#ffb600"/><path d="m575.42 297.26-2.43.53a15.32 15.32 0 0 1 -18.19-11.67l-10.09-46.31a15.32 15.32 0 0 1 11.67-18.18l2.44-.53a15.32 15.32 0 0 1 18.18 11.67l16.24 43.07c1.76 8.21-9.61 19.63-17.82 21.42z" fill="#ffa3b4"/><path d="m551.5 269.25a41.84 41.84 0 0 0 32.25-20.31s-11.25 29.9-29.42 33.26z" fill="#f08b9e"/><path d="m551.5 271s-15.84 24.44 8.53 33.49c38.59 14.35 48.36-29 42.35-31.25l-12.24-5.62s8.8 11.4-2.77 22.1c-8.55 7.91-24.47 10.26-31.89-1.15z" fill="#2b2e33"/><path d="m231.57 886.51c5.86-112.92 37-229.7 90.66-349.92a66.11 66.11 0 0 1 87.58-45l32.19 12.29c32.8 12.55 27.62 36.31 18.39 70.2-55.09 130.46-86.19 260.24-88.05 389.18z" fill="#393d42"/><path d="m437.3 508.47s-41.09-7.27-92-63.65l-34-27.95a11.35 11.35 0 0 0 -15.74 1.3 11.33 11.33 0 0 0 1 15.92l30.72 27.39s-1.58 79.25 76.7 83.63z" fill="#3d3d3d"/><path d="m418.6 509.54s37.47 27.72 118.18 19.32l49.45 1.33a9.66 9.66 0 0 1 9.4 9.66 9.66 9.66 0 0 1 -9.18 9.64l-46.87 2.35s-69.5 38.67-135.63-6.73z" fill="#3d3d3d"/><path d="m490.25 926.45-45.45 28.43c-20.38 12.75-46.12 14.54-67.52 3.57-16.78-8.6-32.47-25.43-36.95-57.86-10.76-77.83 41.21-86 41.21-86s-15.37 152.91 108.71 111.86z" fill="#393d42"/><path d="m250.12 921.18-42.18 40.82c-6 5.85-19.57 7.4-30.07 3.44-10.5-3.95-14.15-12-8.11-17.81l42.17-40.8c6-5.85 19.58-7.4 30.08-3.45 10.5 3.94 14.15 11.95 8.11 17.8z" fill="#4c4e51"/><path d="m306.11 455c-7.33-1-11.55-9.75-9.75-20.34 1.52-9 5-18.68 12.77-22.7 16.24-8.41 33.17-3.39 33.17-3.39l10.46 20.33a5.06 5.06 0 0 1 -4.19 7.37c-10.39.65-27.77 3.41-31.52 14.38-1.09 3.17-3.54 5.39-5.79 5.07z" fill="#ffa3b4"/><path d="m564.1 565.59a18.32 18.32 0 0 1 -23.22-7.3c-4-6.77-6.39-15.18-.62-22.5a63.21 63.21 0 0 1 16.43-14.72 21.16 21.16 0 0 1 18.42-1.74l11.06 4.08a5.82 5.82 0 0 1 1.45 10.15c-7.75 5.61-17 14.28-14.61 22.44a5.77 5.77 0 0 1 -2.94 6.93z" fill="#ffa3b4"/><path d="m639.21 423c.1 54.54-45.41 64.22-82.52 98l32.59 5s94.65-40.78 91.72-91.9-41.79-11.1-41.79-11.1z" fill="#ffa3b4"/><path d="m272.52 831.26a31.93 31.93 0 0 1 -17.89-32.14q11.07-107.58 52.24-195.8a20 20 0 0 1 26.72-9.72 36.48 36.48 0 0 1 18 46.58c-22.43 55.94-38.59 113.57-46.38 173.44a23 23 0 0 1 -32.69 17.64z" fill="#4c4e51"/><path d="m407.5 482.35a22.49 22.49 0 0 0 -18.65 2.18l-35.41 22.42 22.46 60.93 36.76-23.11c7.85-3.58 14-11.62 15.89-22.33 3.07-17.52-6.35-35.44-21.05-40.09z" fill="#3d3d3d"/><ellipse cx="363.53" cy="537.95" fill="#666" rx="27.08" ry="32.86" transform="matrix(.99077151 -.13554265 .13554265 .99077151 -69.57 54.25)"/><path d="m619.64 355.56-2.79 96.39 18.4-.35z" fill="#f49c00"/><path d="m621.58 366.18 9.19 82.18c3 7.51 53.6 12 55.69.43 4.41-24.46 3.26-125.64-28.81-149.43-26.04-19.36-44.15 24.64-36.07 66.82z" fill="#ffb600"/><path d="m565.45 247.09c-3.62 22.51-19.05 30.58-34.48 18s-22.32-39.4-16-66.92c5.11-22.22 13.67-27.14 29.09-14.59s25 41 21.39 63.51z" fill="#ffa3b4"/><path d="m587.54 237.41c-3.61 22.51-26 33.2-41.41 20.65s-25-41-21.38-63.47 19-30.59 34.47-18 31.94 38.31 28.32 60.82z" fill="#ffa3b4"/><circle cx="584.19" cy="240.54" fill="#ffa3b4" r="10.04" transform="matrix(.01535829 -.99988205 .99988205 .01535829 334.7 820.96)"/><path d="m512.64 240.54s19 93.65 69.17 10.58" fill="none" stroke="#0f1a5c" stroke-linecap="round" stroke-linejoin="round" stroke-width="2.39"/><path d="m513.73 232a36.29 36.29 0 0 0 31.78 8.56c12.18-2.39 17.71-7.06 17.71-7.06l12 12.82 7.78-19.8-42.33-20.24-24.86-9.34-6.49 14.56z" fill="#f08b9e"/><path d="m552.59 192.19s-1.09 56.48 38.76 44.22c0 0 32.09-29.16-3.42-62.83-31.31-29.69-63.62 5.08-63.62 5.08z"/><g fill="#4c4e51"><path d="m568.76 207.82s7.61 19.82 5.07 39.65a7.41 7.41 0 0 0 11.11 7.26c8.92-5.39 19.11-15.6 21.65-34.55 6-44.6-26.15-51.18-26.15-51.18z"/><path d="m506.14 202.65s13.93 18.18 55.92 14.37 45-13.88 45-13.88-3-50.91-48.38-50.91c-33.37 0-44.94 24.66-52.54 50.42z"/><path d="m507.81 198.8s-14.62 10.89-7.94 18.06c5 5.39 31.28 20.47 53.07 15.16 5.92-1.44 11.2-9.59 16.59-15.79 0 0-42.59 6.34-61.72-17.43z"/></g><path d="m513.73 204.7s7.21-45.52 53.9-51.74c0 0 10.82.56 18.25 7.61 0 0-40.09 14.53-44.32 55.3 0 0-19.79-1.72-27.83-11.17z" fill="#666"/><circle cx="582.96" cy="247.2" fill="#f49c00" r="2.17"/><path d="m434.32 117.07c0-16.06-11.58-22.22-25.86-13.76h-.07c-.76-30-22.93-41.37-50.22-25.2-22.74 13.51-41.93 41.89-48.17 68.82a83 83 0 0 0 -14.84 24 31.07 31.07 0 0 0 -4.74 2.3c-14.28 8.46-25.86 28.33-25.86 44.39 0 15.32 10.54 21.6 23.9 14.81l-.13.19 122-72.25v-.08c13.38-9.02 23.99-27.86 23.99-43.22z" fill="#fff"/><path d="m209.94 428c0-10.71-7.72-14.82-17.24-9.17a.09.09 0 0 0 0 0c-.51-20-15.29-27.59-33.49-16.81-15.16 9-27.95 27.88-32.1 45.86a55.14 55.14 0 0 0 -9.9 16 20.23 20.23 0 0 0 -3.16 1.53c-9.52 5.64-17.24 18.89-17.24 29.6 0 10.21 7 14.39 15.93 9.87l-.08.13 81.32-48.17v-.06c8.88-5.96 15.96-18.52 15.96-28.78z" fill="#fff"/><path d="m786.29 144.88c0-7.47-5.38-10.34-12-6.4-.35-14-10.67-19.25-23.37-11.72-10.58 6.26-19.51 19.45-22.4 32a38.33 38.33 0 0 0 -6.91 11.16 14.74 14.74 0 0 0 -2.2 1.07c-6.65 3.94-12 13.18-12 20.65 0 7.13 4.9 10.05 11.11 6.9l-.06.08 56.67-33.62c6.23-4.2 11.16-13 11.16-20.12z" fill="#fff"/></svg>