<svg viewBox="0 0 38 36.31" xmlns="http://www.w3.org/2000/svg"><path d="m2.5 1.5 15.61 6.25a3 3 0 0 1 1.89 2.78v21.77a3 3 0 0 1 -4 2.84l-13-4.45a3 3 0 0 1 -2-2.83v-23.86a3 3 0 0 1 3-3h20a3 3 0 0 1 3 3v23a3 3 0 0 1 -3 3h-4" fill="none" stroke="#010101" stroke-linejoin="round" stroke-width="2"/><circle cx="15.5" cy="20.5" fill="#010101" r="1.75"/><g fill="none" stroke="#010101" stroke-width="2"><path d="m32.5 11.5 4.5 4.5-4.5 4.5" stroke-linejoin="round"/><path d="m36.5 16h-9" stroke-miterlimit="10"/></g></svg>