<svg viewBox="0 0 62.96 53.79" xmlns="http://www.w3.org/2000/svg"><g fill="none" stroke="#010101" stroke-linecap="round" stroke-linejoin="round" stroke-width="2"><path d="m5.08 27.12a4.09 4.09 0 0 0 -4.08 4.09v10.68a4.09 4.09 0 0 0 4.08 4.11 4.09 4.09 0 0 0 4.09-4.09v-10.7a4.09 4.09 0 0 0 -4.09-4.09z"/><path d="m57.87 27.12a4.09 4.09 0 0 0 -4.08 4.09v10.68a4.09 4.09 0 0 0 4.08 4.11 4.09 4.09 0 0 0 4.13-4.11v-10.68a4.09 4.09 0 0 0 -4.13-4.09z"/><path d="m4.86 27c0-14.7 11.92-26 26.62-26s26.62 11.31 26.62 26"/><path d="m40.91 48.86h14.75a2.69 2.69 0 0 0 2.53-2.62"/><rect height="7.86" rx="3.42" transform="matrix(-1 0 0 -1 65.47 97.72)" width="15.71" x="24.88" y="44.93"/></g></svg>