<svg viewBox="0 0 32.51 50.53" xmlns="http://www.w3.org/2000/svg"><g fill="none" stroke="#010101" stroke-linecap="round" stroke-linejoin="round"><path d="m16.26.5-4.61 3.82-6.59-2.63 4.87 9.87s1.32 1.32 6.33 1.32 6.32-1.32 6.32-1.32l4.87-9.87-6.58 2.63z"/><path d="m9.93 11.56-1.18 3.82a17.85 17.85 0 0 0 7.51 1.92 17.83 17.83 0 0 0 7.5-1.92l-1.18-3.82"/><path d="m8.75 15.38s-16.86 20.68-2.37 31c5.73 4.02 9.88 3.62 9.88 3.62s4.15.38 9.87-3.68c14.49-10.28-2.37-31-2.37-31"/><path d="m20.93 28.44a2.7 2.7 0 0 0 -2.69-2.69h-4a2.7 2.7 0 0 0 -2.68 2.69v1.56a2.7 2.7 0 0 0 2.68 2.69h4a2.7 2.7 0 0 1 2.69 2.69v1.62a2.7 2.7 0 0 1 -2.69 2.69h-4a2.7 2.7 0 0 1 -2.65-2.69"/><path d="m16.26 25.75v-2.74"/><path d="m16.26 42.41v-2.74"/></g></svg>