<svg viewBox="0 0 55.73 59.55" xmlns="http://www.w3.org/2000/svg"><g fill="none" stroke-linecap="round" stroke-linejoin="round" stroke-width="2"><g stroke="#010101"><path d="m38.9 45.56v12.99h-37.9v-46.33h5.13"/><path d="m33.55 12.22h5.35v13.7"/><path d="m29 10.55h-1.58a7.5 7.5 0 0 0 .24-1.85 7.71 7.71 0 0 0 -15.41 0 7.5 7.5 0 0 0 .23 1.85h-1.57a2.32 2.32 0 0 0 -2.31 2.3v3.09a2.32 2.32 0 0 0 2.31 2.31h18.09a2.31 2.31 0 0 0 2.3-2.31v-3.09a2.31 2.31 0 0 0 -2.3-2.3z"/><path d="m29.48 49.42-5.73 1.12 1.11-5.74 20.2-20.19 4.62 4.62z"/><path d="m47.78 21.3h6.53v3.87h-6.53z" transform="matrix(.70710678 .70710678 -.70710678 .70710678 31.39 -29.29)"/></g><g stroke="#fdb614"><path d="m6.11 31.09 1.7 1.7 5.46-5.46"/><path d="m6.11 40.09 1.7 1.69 5.46-5.45"/><path d="m6.11 49.08 1.7 1.7 5.46-5.46"/></g></g></svg>