<svg viewBox="0 0 1020.61 1128.98" xmlns="http://www.w3.org/2000/svg"><g fill="#ffd69f"><path d="m340.78 385.83c9.09-7.23 21.36-17.6 34.84-30.67l9.26-96.34c-19.11 26.76-37.69 62-51.73 108.25l-26.34-64.73c23.41-23.92 68.08-75.68 87.25-139.15l4.94-51.31c-16.45 9.83-77.93 53.47-101.3 168.12l-23.83-58.57c19.61-30.7 62-108.07 48-184.32 0 0-57.43 44.35-59.15 157l-13.85-34c-5.81-41.45-23.22-114.83-74.77-160.11 0 0-17.72 70.94 51.72 160.92l25 61.42c-86-97.52-167.9-88-167.9-88 48 71.52 146.91 95.38 173 100.56l26.61 65.39c-118.59-87.29-207.08-57.36-207.08-57.36 67.65 65.43 177 70.9 212.57 70.85l29 71.3c-147.02-86.38-244.52-40.23-244.52-40.23 85.64 65.47 211.37 56 249.06 51.36l37.51 92.18c-147.07-86.39-244.54-40.23-244.54-40.23 84.28 64.42 207.38 56.28 247.2 51.57l4.85-50.5z"/><path d="m174.17 334.29-1.64 55.3-20.42-5.3s-5.42-32.91 5-51.64z"/><path d="m177.6 436s7.43 29.62 11 34.32l-29.25-31.82z"/><path d="m250.65 443.63s-5.08 29.17-2 55.47l-14.38-2.19s-4-25 4.17-55.9z"/><path d="m353.31 416.61-12.81 26.13-5.3-13.01 13.68-24.01z"/><path d="m330.02 472.67-6.93 29.91-10.32.23 8.69-34.26z"/><path d="m235.62 722.43 58.63 13.07 44.41 4.27 3.41-35.49c-38.07-.71-78.35 4.12-106.45 18.15z"/><path d="m184.73 304s-36.48 62.72 4.39 167.76l-25.65-26.31c-21-36.15-64.8-97.56-129.62-120.08 0 0 10.32 72.38 108.55 129.57l46.29 47.48c-116.41-57.93-188.69-18.28-188.69-18.28 71.44 48.15 172 33 198.13 28l49.29 50.54c-121.1-30.68-190.33 8.61-208.52 21.23a150.28 150.28 0 0 0 62.92 18.09c67.18 3.88 131.18-18.84 155.79-28.91l53.75 55.12c-73.76-10.76-129.21-1.62-168.27 12.06l-46 21 47.29 7.18a274.36 274.36 0 0 0 173.67-30.73l1.68-.93 26.27 26.91 2.72-28.31-15.08-15.39c5.64-10 13-24.05 20.47-41l18.28-190.15c-20.1 24.09-64.28 92.3-52.89 216.64l-48.79-50c16.09-39.33 47-133.16 16.56-214.81 0 0-58.4 64.24-33.44 197.5l-44.14-45.27c6.59-35.91 16.74-123.56-24.96-188.91z"/><rect height="271.48" rx="101.26" width="301.51" x="511.15" y="21.29"/></g><path d="m601.21 123.67h136.6" fill="none" stroke="#fff" stroke-linecap="round" stroke-linejoin="round" stroke-width="6.28"/><path d="m601.21 190.39h136.6" fill="none" stroke="#fff" stroke-linecap="round" stroke-linejoin="round" stroke-width="6.28"/><path d="m469.28 286.9c0 2.14 13.15 30.9 22.59 51.28a9.25 9.25 0 0 0 17.08-.72l18.52-50.56z" fill="#ed516e"/><rect fill="#ed516e" height="226.09" rx="91.65" width="251.1" x="390.27" y="74.11"/><rect fill="#ff5776" height="226.09" rx="91.65" width="251.1" x="371.96" y="74.11"/><path d="m458.79 168.6 33.34 57.55 44.11-83.9" fill="none" stroke="#fff" stroke-linecap="round" stroke-linejoin="round" stroke-width="6.28"/><path d="m501 1128.72h352.04l167.57-98.54v-172.46l-216.81-124.4z" fill="#ddc6ab" opacity=".4"/><path d="m502.03 793.73 341.83-197.36-341.82-197.35-341.83 197.36z" fill="#cfae88"/><path d="m502.07 793.58 341.83-197.36-341.82-197.34z" fill="#bd9a75"/><path d="m727.1 769.72 91.39-53.97v-61.76l-91.39 53.97z" fill="#a17b51"/><path d="m842.15 596.23 111.71-70.45-343.24-203.72-110.29 76.82z" fill="#d6b48d"/><path d="m502.04 399.02-92.33-61.37-339.24 196.56 89.74 62.17z" fill="#d6b48d"/><path d="m765.6 612.89v87.07 27.27 87.07l-204.26 117.93v-87.07-148.78-87.07z" fill="#1d1e1e"/><path d="m467.16 555.53v55.43l94.18-1.65v87.07 148.78 87.07l-94.18-54.37v.6l-204.26-117.94v-87.07-27.27-87.07z" fill="#2e3033"/><path d="m262.32 559.29 204.84-118.27 299.01 172.05-204.84 118.26z" fill="#393d42"/><path d="m842.89 596.07v145.3 45.51 145.3l-340.85 196.8v-145.3-189.95z" fill="#bd9a75"/><path d="m502.04 793.73v189.95 145.3l-340.86-196.8v-145.3-45.51-145.29z" fill="#d6b48d"/><path d="m502.03 793.73-83.39 57.79-348.17-197.43 89.74-57.71z" fill="#e8c399"/><path d="m843.86 596.37 93.33 65.35-357.85 210.49-77.31-78.48z" fill="#d6a985"/><path d="m348.45 509.56 296.58 173.45 50.26-29.02-301.43-170.65z" fill="#ffb600"/><path d="m372.14 495.89 298.6 172.88" fill="none" stroke="#1257b3" stroke-linecap="round" stroke-linejoin="round" stroke-width="2.16"/><path d="m502.03 793.73.01 61.87 60.34 62.61 281.48-157.83 2.12-45.01-266.64 156.84z" fill="#ba8c66"/><path d="m160.21 704.98 258.43 146.54 83.39-57.79.01 61.87-69.54 47.12-271.32-142.62z" fill="#cca17f"/></svg>