<svg viewBox="0 0 1028.11 1096.04" xmlns="http://www.w3.org/2000/svg"><path d="m11.44 606.28s-93.44-486.44 254.08-560.03 618.1-106 631.28 273.17 227.9 564.46 78.92 664.3-920.29-47.66-964.28-377.44z" fill="#ffd69f"/><path d="m321.75 888.09s157.25-95.31 217.09-169.76c107.57-133.84-192.84-423.82-192.84-423.82l-182.09 441.37-98.79 101.33c-45.12 46.29-45.12 120.57.76 166.1a357.21 357.21 0 0 0 45.66 38.29 67.86 67.86 0 0 0 91.08-11.73z" fill="#ffa3b4"/><path d="m193.53 1040.69 128.22-152.6s142.26-91.56 164-119.27l-122.48-4.49s49.46 43.47-53.27 107.09l-212.33 159.86c7.22 6.8 17 13.77 27.38 20.26a52.92 52.92 0 0 0 68.48-10.85z" fill="#f08b9e"/><path d="m266.61 744.12c16-70.13-11.12-161.36 15.78-276.4 0 0 128.46 292.87 125.47 298.86s-7.49 49.18-21 43.9-133.96 25.02-120.25-66.36z" fill="#f08b9e"/><rect fill="#1d1d1e" height="658.09" rx="24.02" width="375.12" x="291.43" y="114.48"/><rect fill="#ffb600" height="601.99" rx="22.2" width="350.41" x="303.04" y="142.13"/><path d="m167.88 777.63-10.75-113.11a121.1 121.1 0 0 1 5.61-49.6l62.72-189a44.39 44.39 0 0 1 17.68-23.06l104.39-68.86c7.86-5.19 19 4.44 19.14 13.84.14 11.8-1.63 17.25-11 31.08-21.57 31.63-70.8 82.08-70.8 82.08l-41.74 113.33 28.28 204.5-88.19-1z" fill="#ffa3b4"/><rect fill="#393d42" height="203.08" rx="25.46" width="328.49" x="407.91" y="169.72"/><g fill="#fff"><rect height="16.29" rx="4.8" width="55.03" x="429.9" y="286.84"/><rect height="16.29" rx="4.8" width="55.03" x="507.07" y="286.84"/><rect height="16.29" rx="4.8" width="55.03" x="584.24" y="286.84"/><rect height="16.29" rx="4.8" width="55.03" x="661.41" y="286.84"/><rect height="55.03" rx="7.36" width="61.89" x="429.9" y="212.72"/><rect height="10.83" rx="3.19" width="126.35" x="428.62" y="332.54"/></g><path d="m592.93 646.16h-237.23a25.54 25.54 0 0 1 -25.46-25.46v-192.14a25.53 25.53 0 0 1 25.46-25.46h237.23a25.53 25.53 0 0 1 25.46 25.46v192.14a25.54 25.54 0 0 1 -25.46 25.46z" fill="#e59f13"/><path d="m508.38 493.19h-6.73-20.44-71.28l27.63 73.61h42.54 20.45 42.55l6.81-16.81" fill="none" stroke="#000" stroke-linecap="round" stroke-linejoin="round" stroke-width="4.24"/><circle cx="458.92" cy="605.53" fill="none" r="13.81" stroke="#000" stroke-linecap="round" stroke-linejoin="round" stroke-width="4.24" transform="matrix(.16022575 -.9870804 .9870804 .16022575 -212.3 961.53)"/><circle cx="522.19" cy="605.53" fill="none" r="13.81" stroke="#000" stroke-linecap="round" stroke-linejoin="round" stroke-width="4.24"/><path d="m389.1 437.48h-29.5" fill="none" stroke="#000" stroke-linecap="round" stroke-linejoin="round" stroke-width="4.24"/><path d="m409.93 493.19-16.64-44.51" fill="#393d42" stroke="#000" stroke-linecap="round" stroke-linejoin="round" stroke-width="4.24"/><circle cx="553.2" cy="499.99" fill="#ff5776" r="35.83" transform="matrix(.70710678 -.70710678 .70710678 .70710678 -191.52 537.61)"/><path d="m537.51 496.46 14.47 19.56 16.9-32.05" fill="none" stroke="#fff" stroke-linecap="round" stroke-linejoin="round" stroke-width="4.72"/><path d="m938.94 1096c-22.8-20.18-91.61-91.95-103.17-115.31-53.77-108.69 58.84-179.04 165.12-85.02l.39.35a72.18 72.18 0 0 1 24.33 54.08v16.9a139.35 139.35 0 0 1 -86.61 129z" fill="#ffa3b4"/><path d="m938.94 1096c-22.8-20.18-91.61-91.95-103.17-115.31-53.81-108.75-47.45-86.16 56 10.92 65.85 61.77 116.27 43 116.27 43-25.88 34.09-49.75 58.39-69.1 61.39z" fill="#f08b9e"/><path d="m459.94 522.23a11.3 11.3 0 0 1 16.73-1.87c27.34 24.36 54.67 41.47 74.48 57.33 71 56.83 94.65 65.87 94.65 65.87.92.14 4.81 5.36 5.74 5.47-1-6.16-4.43-29.47 24.83-29.07 5.41-1.08 8.86 0 13 1.17 3.21.49 6.65 1.14 10.37 2 0 0 .7-12.08 10.55-17.54.83-.71 1.72-1.45 2.71-2.27 18.85-2.57 24.7-1.13 38.28 9 4.51-12.28 22.08-10 35.23-5.83s30.88 17.34 40.38 25.26c33.52 25.92 70.63 61.57 70.63 61.57l103.39 202.39s-88.06 76.48-145.09 105-192.82-104.48-193.64-105.29c-.78 0-14.24-10.6-17.46-13.88q-16.1-16.35-32.14-32.75c-24.62-23.23-123.89-83.92-121.33-82.1 0 0 6.58-30.82 46-23.45 47.86 8.93 130.26 56.22 130.38 54.22 1.45-23.31-55.53-80.54-98.95-124.05-19.41-19.46-69.66-71.2-77.66-79.07-40.94-40.34-38.37-61.81-31.08-72.11z" fill="#ffa3b4"/><path d="m676.68 629.8h2.5v88.76h-2.5z" fill="#f08b9e" transform="matrix(.69012494 -.72369024 .72369024 .69012494 -277.82 699.5)"/><path d="m732 610.69h2.5v88.76h-2.5z" fill="#f08b9e" transform="matrix(.69012494 -.72369024 .72369024 .69012494 -246.86 733.61)"/><path d="m794.76 599.65h2.5v88.76h-2.5z" fill="#f08b9e" transform="matrix(.69012494 -.72369024 .72369024 .69012494 -219.42 775.61)"/><path d="m677.89 806.14-10.21-8.68s-4.36-24.94-39.24-62-137.37-141.12-137.37-141.12 188.45 127.07 193.93 174.79-7.11 37.01-7.11 37.01z" fill="#f08b9e"/><path d="m883.84 984.56s-28.93 26.75-55.06 19.46-89.23-26-184.06-122.48c0 0 125.72 104.85 172.53 106.78s66.59-3.76 66.59-3.76z" fill="#f08b9e"/></svg>